<?xml version="1.0" standalone="no"?>
<!DOCTYPE svg PUBLIC "-//W3C//DTD SVG 20010904//EN"
 "http://www.w3.org/TR/2001/REC-SVG-20010904/DTD/svg10.dtd">
<svg version="1.0" xmlns="http://www.w3.org/2000/svg"
 width="640.000000pt" height="640.000000pt" viewBox="0 0 640.000000 640.000000"
 preserveAspectRatio="xMidYMid meet">
<metadata>
Created by potrace 1.14, written by Peter Selinger 2001-2017
</metadata>
<g transform="translate(0.000000,640.000000) scale(0.100000,-0.100000)"
fill="#000000" stroke="none">
<path d="M3094 6378 c-16 -12 -31 -25 -34 -28 -9 -11 -44 -23 -90 -30 -208
-34 -363 -127 -400 -241 -14 -43 -35 -54 -28 -15 5 27 -11 39 -33 25 -8 -5
-27 -9 -42 -9 -62 0 -167 -75 -231 -164 -10 -14 -35 -30 -56 -36 -47 -13 -120
-88 -99 -101 11 -7 10 -9 -3 -9 -12 0 -21 -13 -28 -42 -6 -24 -13 -47 -14 -53
-2 -5 -9 3 -15 19 -7 16 -10 35 -7 41 2 6 -2 12 -9 12 -9 0 -12 -11 -8 -36 2
-20 6 -45 7 -56 2 -11 6 -29 10 -41 4 -13 1 -26 -8 -33 -12 -10 -17 -8 -25 8
-15 27 -14 44 2 36 6 -4 2 3 -11 14 -13 11 -23 22 -22 25 1 17 -2 17 -20 1
-11 -10 -20 -26 -19 -34 4 -44 0 -52 -20 -39 -18 11 -18 13 -3 25 16 12 15 12
-2 6 -17 -6 -18 -3 -12 33 4 21 12 41 17 42 12 5 12 22 0 22 -17 0 -40 -100
-31 -135 1 -5 2 -21 1 -34 -1 -16 -5 -21 -16 -17 -19 7 -19 2 -1 -33 16 -31
12 -67 -9 -75 -9 -3 -12 0 -8 10 3 7 0 14 -7 14 -20 0 -39 32 -40 64 0 16 -3
27 -6 23 -9 -9 -7 -287 2 -316 6 -20 4 -23 -9 -18 -21 8 -22 0 -2 -19 8 -9 15
-21 15 -27 0 -7 -4 -6 -10 3 -8 13 -12 12 -29 -6 -25 -27 -30 -66 -11 -81 13
-11 13 -12 -4 -13 -13 0 -17 -5 -13 -19 3 -12 -1 -22 -10 -25 -8 -3 -11 -10
-8 -16 3 -5 -1 -10 -9 -10 -22 0 -20 -11 9 -54 13 -20 21 -36 18 -36 -4 0 -2
-5 5 -12 16 -16 15 -28 -1 -28 -21 0 -16 -32 5 -38 10 -2 18 -11 18 -19 0 -9
-6 -12 -19 -8 -30 9 -35 -22 -6 -41 28 -18 33 -34 10 -34 -14 0 -14 -3 0 -24
9 -13 26 -27 38 -31 21 -7 21 -8 -6 -12 -15 -2 -25 -9 -22 -14 4 -5 1 -9 -5
-9 -6 0 -4 -10 6 -25 9 -14 13 -25 10 -25 -4 0 0 -10 8 -22 11 -15 12 -25 5
-34 -14 -17 -21 -124 -8 -124 6 0 8 -4 4 -9 -3 -5 -7 -23 -9 -40 -2 -22 1 -31
11 -31 12 0 12 -3 -1 -16 -20 -20 -20 -34 -1 -34 17 0 19 -12 5 -26 -13 -13 4
-73 27 -89 9 -7 24 -11 33 -8 10 3 11 2 3 -4 -8 -5 -9 -14 -3 -23 7 -12 14
-10 36 10 26 25 27 25 22 3 -3 -12 -1 -24 6 -27 7 -3 4 -11 -9 -21 -20 -17
-19 -17 5 -10 33 10 96 65 75 65 -10 0 -13 4 -8 13 4 6 8 19 8 27 0 8 5 14 12
13 8 -2 10 4 6 14 -5 12 -2 15 9 10 13 -4 15 0 13 21 -1 15 4 31 12 37 8 6 11
18 7 28 -6 17 -7 17 -20 0 -12 -17 -13 -17 -14 -1 0 9 8 21 17 27 10 5 14 13
10 17 -4 4 12 17 35 29 27 14 42 28 40 38 -2 10 11 22 33 33 37 17 54 34 35
34 -6 0 -8 6 -5 13 4 6 1 5 -7 -4 -22 -26 -56 -41 -61 -26 -3 8 -10 6 -21 -8
-8 -11 -16 -15 -16 -9 0 5 5 15 11 21 7 7 7 13 0 17 -5 4 -7 14 -4 24 6 15 5
15 -10 3 -15 -12 -17 -11 -17 12 0 13 7 30 15 37 8 7 13 16 10 20 -3 4 6 10
20 12 26 5 32 -1 16 -18 -11 -11 -2 -104 10 -104 4 0 16 8 26 18 10 10 32 24
48 32 17 8 41 25 55 38 24 23 24 23 -25 -2 l-50 -26 43 36 c23 20 40 39 37 44
-2 4 8 20 23 35 18 19 21 26 10 22 -10 -3 -18 -2 -18 3 0 6 6 10 13 10 6 0 19
5 27 10 12 8 12 12 2 18 -9 6 -7 14 9 31 12 12 18 25 15 28 -3 3 2 12 12 19
16 13 16 13 -2 14 -19 0 -19 0 0 23 11 12 26 30 34 40 12 17 11 18 -16 12 -27
-6 -26 -5 11 19 l40 25 -35 2 -35 1 30 9 c17 5 41 10 54 11 20 2 21 4 7 13
-13 8 -7 12 30 20 25 5 45 14 44 19 -2 14 22 26 55 27 30 2 30 2 -5 9 -19 4
-29 8 -22 9 7 0 10 6 7 11 -4 6 8 10 29 10 20 0 36 4 36 8 0 5 13 7 30 4 36
-5 94 33 66 44 -28 11 -17 24 14 18 17 -4 30 -2 30 3 0 5 22 9 49 9 38 -1 47
2 43 13 -4 11 1 12 21 7 22 -5 25 -3 22 14 -4 20 5 26 18 13 4 -3 19 -7 34 -9
l28 -2 -27 12 c-19 8 -24 16 -19 25 7 11 14 10 36 -5 28 -18 28 -18 16 3 -17
33 -13 38 11 17 13 -12 18 -13 13 -4 -5 9 0 8 14 -4 l22 -20 -23 -14 c-15 -8
-16 -11 -5 -8 10 3 21 6 23 6 3 0 9 12 15 28 10 26 11 26 24 8 8 -10 13 -22
10 -25 -2 -4 5 -8 16 -8 16 -2 19 3 14 20 -5 19 -2 18 22 -8 15 -17 24 -25 19
-18 -5 9 -4 13 5 13 9 1 8 5 -5 15 -16 12 -17 15 -4 15 8 0 21 -7 28 -15 9
-11 17 -12 33 -4 17 10 24 7 46 -20 24 -29 50 -44 36 -21 -3 6 -3 10 2 10 12
-1 43 -26 38 -31 -2 -3 4 -5 14 -5 15 0 17 4 9 22 -7 15 -7 28 1 40 9 17 10
16 11 -7 0 -28 22 -54 34 -42 4 4 12 1 17 -7 7 -10 12 -11 15 -4 6 15 44 6 44
-10 0 -6 5 -4 10 4 8 13 11 12 24 -5 14 -19 15 -19 9 5 l-7 25 26 -27 25 -28
11 23 11 22 0 -24 c1 -18 5 -22 21 -18 12 3 18 1 14 -5 -5 -7 2 -9 20 -6 18 4
26 1 26 -8 0 -16 43 -29 65 -20 13 5 14 2 4 -15 -14 -27 -4 -36 16 -15 20 20
29 21 22 1 -8 -20 40 -1 63 25 20 23 39 27 20 5 -10 -12 -10 -15 0 -15 9 0 8
-5 -3 -18 -34 -37 -16 -41 36 -8 28 18 63 39 77 46 l25 13 -20 -22 -19 -22 29
6 c17 4 36 8 43 11 6 2 12 -1 12 -6 0 -6 -5 -10 -12 -10 -6 0 -9 -3 -5 -6 3
-4 32 -6 63 -6 52 0 56 -2 39 -14 -18 -13 -17 -14 7 -14 29 0 46 -15 26 -23
-7 -3 10 -6 38 -6 28 -1 56 5 63 12 10 10 11 9 6 -5 -8 -21 -2 -22 27 -7 13 7
18 7 14 1 -4 -6 6 -12 21 -14 28 -4 28 -4 -7 -14 -34 -10 -33 -11 34 -17 47
-4 73 -12 78 -22 5 -8 19 -16 31 -16 14 -1 9 -4 -13 -9 l-35 -7 30 -3 c17 -2
36 -3 42 -3 17 1 75 -66 68 -78 -4 -5 1 -9 9 -9 9 0 16 -3 16 -7 0 -5 4 -35
10 -68 5 -33 12 -78 15 -100 3 -22 10 -62 15 -90 5 -27 14 -113 20 -190 12
-165 19 -215 29 -215 4 0 15 30 24 68 19 74 19 74 36 117 9 22 10 39 1 70 -16
55 -12 97 10 119 14 14 13 76 -2 76 -6 0 -3 7 8 15 10 8 15 15 11 15 -4 0 -3
8 2 18 7 13 7 22 0 29 -8 8 -8 17 0 31 14 27 14 32 -4 32 -18 0 -19 12 -3 28
7 7 8 12 4 12 -5 0 -3 7 4 15 9 11 9 30 0 85 -6 38 -16 70 -21 70 -5 0 0 16
11 35 11 19 17 35 13 35 -3 0 2 9 13 21 14 16 16 24 7 37 -8 13 -7 24 3 45 8
15 18 27 23 27 4 0 13 11 19 25 6 13 23 27 36 31 14 3 32 19 40 34 12 25 12
31 -1 49 -8 12 -10 21 -4 21 13 0 -25 122 -42 135 -8 6 -12 15 -10 22 2 6 -1
14 -6 18 -6 3 -11 19 -11 34 0 49 -12 91 -26 91 -8 0 -14 7 -14 16 0 8 -4 12
-10 9 -5 -3 -10 3 -10 14 0 12 -4 21 -10 21 -5 0 -10 5 -10 10 0 6 -12 22 -27
35 -25 20 -28 30 -26 75 3 59 -18 120 -41 120 -9 0 -16 4 -16 9 0 5 -14 14
-30 20 -17 5 -45 26 -63 46 -18 20 -44 42 -58 50 -62 35 -115 58 -128 56 -9
-2 -12 3 -8 14 4 8 -1 30 -11 48 -15 28 -20 31 -39 22 -13 -5 -23 -13 -23 -17
0 -5 -5 -8 -12 -8 -6 0 -3 9 8 21 17 19 17 21 2 30 -10 5 -15 15 -13 22 3 6
-8 21 -23 32 -22 16 -50 21 -167 26 -99 5 -153 12 -184 25 -25 10 -66 18 -92
18 -26 1 -45 4 -42 9 7 12 -12 8 -26 -5 -11 -11 -12 -10 -6 0 6 11 -6 13 -61
11 -38 -2 -75 0 -82 5 -8 4 -59 12 -115 17 -97 7 -175 32 -192 59 -3 5 -30 10
-59 10 -40 0 -61 -6 -82 -22z m251 -136 c-10 -10 -16 -12 -13 -7 3 6 8 19 13
30 5 14 9 16 12 7 3 -8 -3 -21 -12 -30z m698 -36 c-15 -13 -30 -23 -32 -20 -5
4 41 43 52 44 4 0 -5 -11 -20 -24z m112 -6 c3 -5 1 -10 -4 -10 -6 0 -11 5 -11
10 0 6 2 10 4 10 3 0 8 -4 11 -10z m-1625 -200 c0 -5 -4 -10 -10 -10 -5 0 -10
5 -10 10 0 6 5 10 10 10 6 0 10 -4 10 -10z m1990 -95 c0 -2 -10 -10 -22 -16
-21 -11 -22 -11 -9 4 13 16 31 23 31 12z m-2338 -42 c-6 -2 -10 -9 -6 -14 3
-5 -1 -9 -8 -9 -10 0 -10 -2 1 -9 11 -7 9 -14 -13 -37 -14 -16 -26 -34 -26
-41 0 -6 -4 -15 -10 -18 -6 -3 -10 4 -10 17 0 30 55 118 72 117 10 0 10 -2 0
-6z m2328 -3 c0 -5 -5 -10 -11 -10 -5 0 -7 5 -4 10 3 6 8 10 11 10 2 0 4 -4 4
-10z m-1673 -116 c-3 -3 -12 -4 -19 -1 -8 3 -5 6 6 6 11 1 17 -2 13 -5z m-70
-25 c-22 -11 -41 -18 -44 -16 -6 7 48 36 67 36 8 0 -2 -9 -23 -20z m-62 -29
c-3 -5 -14 -10 -23 -10 -15 0 -15 2 -2 10 20 13 33 13 25 0z m-585 -18 c0 -4
-10 -13 -22 -21 -23 -14 -23 -14 -4 8 20 22 26 25 26 13z m490 -46 c0 -3 -4
-8 -10 -11 -5 -3 -10 -1 -10 4 0 6 5 11 10 11 6 0 10 -2 10 -4z m-551 -47
c-20 -12 -22 -4 -7 20 11 18 14 19 16 5 2 -9 -2 -20 -9 -25z m-95 4 c3 -10 9
-24 12 -30 3 -8 -1 -13 -10 -13 -9 0 -16 3 -16 8 0 4 -3 17 -6 30 -7 26 11 30
20 5z m630 -8 c-9 -14 -19 -23 -22 -20 -5 4 26 45 35 45 2 0 -4 -11 -13 -25z
m-709 -25 c3 -5 1 -10 -4 -10 -6 0 -11 5 -11 10 0 6 2 10 4 10 3 0 8 -4 11
-10z m195 -32 c0 -5 -4 -8 -10 -8 -5 0 -10 10 -10 23 0 18 2 19 10 7 5 -8 10
-18 10 -22z m-111 -16 c0 -11 -2 -12 -6 -4 -2 6 -9 10 -14 7 -5 -4 -6 1 -3 9
8 20 24 11 23 -12z m102 -38 c-9 -28 -9 -29 -10 -3 -1 14 2 29 6 32 11 12 13
2 4 -29z m169 31 c0 -3 -9 -15 -20 -27 -22 -24 -26 -18 -10 13 10 17 30 27 30
14z m279 -32 c-40 -47 -42 -49 -34 -33 10 19 47 60 53 60 3 0 -5 -12 -19 -27z
m-348 -76 c-16 -16 -26 0 -10 19 9 11 15 12 17 4 2 -6 -1 -17 -7 -23z m314 6
c-4 -10 -8 -23 -9 -30 -4 -23 -16 -27 -16 -5 0 28 10 52 22 52 6 0 7 -8 3 -17z
m-425 -5 c0 -7 -12 -21 -25 -31 -22 -15 -25 -16 -25 -2 0 8 7 15 15 15 9 0 18
7 21 15 7 18 14 20 14 3z m-107 -56 c-10 -10 -17 -12 -25 -4 -6 6 -17 8 -26 5
-9 -4 -13 -2 -9 4 4 6 22 11 41 10 29 -1 32 -3 19 -15z m82 -12 c-3 -5 -11
-10 -16 -10 -6 0 -7 5 -4 10 3 6 11 10 16 10 6 0 7 -4 4 -10z m103 -7 c-8 -10
-19 -30 -26 -45 -6 -16 -17 -28 -23 -28 -8 0 -6 7 4 18 10 10 17 26 17 35 0 9
8 21 18 26 25 15 27 13 10 -6z m179 -40 c-3 -10 -5 -4 -5 12 0 17 2 24 5 18 2
-7 2 -21 0 -30z m-512 17 c3 -5 1 -10 -4 -10 -6 0 -11 5 -11 10 0 6 2 10 4 10
3 0 8 -4 11 -10z m195 -20 c0 -5 -5 -10 -11 -10 -5 0 -7 5 -4 10 3 6 8 10 11
10 2 0 4 -4 4 -10z m47 -44 c-4 -11 12 -20 61 -36 74 -24 116 -45 69 -35 -15
3 -48 -1 -73 -10 -48 -16 -156 -21 -119 -5 11 5 43 9 70 9 28 1 57 6 65 12 11
8 8 9 -13 4 -17 -3 -26 -2 -23 3 3 5 -8 12 -24 16 -29 5 -41 32 -23 49 11 11
15 8 10 -7z m828 4 c3 -5 1 -10 -4 -10 -6 0 -11 5 -11 10 0 6 2 10 4 10 3 0 8
-4 11 -10z m-745 -4 c0 -3 -4 -8 -10 -11 -5 -3 -10 -1 -10 4 0 6 5 11 10 11 6
0 10 -2 10 -4z m110 -16 c24 -8 24 -8 -5 -8 -16 0 -39 3 -50 8 -18 8 -18 9 5
8 14 0 36 -4 50 -8z m1049 -22 c10 -18 11 -20 0 -10 -7 6 -21 12 -32 12 -10 0
-15 5 -12 10 10 17 29 11 44 -12z m-1339 -48 c8 -5 11 -10 5 -10 -5 0 -17 5
-25 10 -8 5 -10 10 -5 10 6 0 17 -5 25 -10z m90 -35 c22 -13 23 -14 5 -15 -17
0 -15 -3 10 -20 36 -24 30 -26 -14 -4 -17 8 -29 19 -26 24 3 4 -3 7 -12 6 -9
0 -18 5 -20 12 -6 16 26 15 57 -3z m610 -9 c-6 -9 -19 -12 -28 -8 -17 6 -14 7
37 21 2 1 -2 -5 -9 -13z m-681 -12 c2 -2 2 -7 -1 -10 -4 -3 -19 2 -35 11 l-28
16 30 -6 c16 -4 32 -9 34 -11z m248 -20 c-3 -3 -12 -4 -19 -1 -8 3 -5 6 6 6
11 1 17 -2 13 -5z m-230 -19 c8 -9 13 -18 11 -21 -3 -2 -13 5 -23 16 -21 23
-11 27 12 5z m168 5 c-3 -5 2 -10 12 -11 10 0 13 -3 6 -6 -7 -2 -23 3 -35 11
l-22 16 22 0 c13 0 20 -4 17 -10z m102 -16 c-3 -3 -12 -4 -19 -1 -8 3 -5 6 6
6 11 1 17 -2 13 -5z m98 -16 c13 -5 9 -6 -15 -2 -19 4 -42 10 -50 15 -18 11
34 1 65 -13z m-605 -98 c17 -13 20 -20 10 -20 -9 0 -23 9 -33 20 -21 25 -9 25
23 0z m557 4 c-3 -3 -12 -4 -19 -1 -8 3 -5 6 6 6 11 1 17 -2 13 -5z m-527 -64
c0 -5 -2 -10 -4 -10 -3 0 -8 5 -11 10 -3 6 -1 10 4 10 6 0 11 -4 11 -10z m284
-116 c21 -8 20 -20 -1 -28 -10 -4 -14 -4 -10 0 4 4 2 13 -4 21 -13 14 -9 16
15 7z m107 -57 c-10 -9 -11 -8 -5 6 3 10 9 15 12 12 3 -3 0 -11 -7 -18z m-98
-17 c-3 -11 -9 -20 -14 -20 -11 0 -11 3 -3 24 9 23 23 20 17 -4z m-20 -50 c-3
-11 -9 -17 -14 -15 -10 7 -1 35 11 35 5 0 6 -9 3 -20z m162 -20 c-3 -5 -16
-15 -28 -21 -19 -9 -19 -8 3 10 28 23 34 26 25 11z m-185 -3 c0 -9 -41 -50
-45 -45 -6 6 24 48 36 48 5 0 9 -2 9 -3z m-39 -170 c-11 -14 -5 -27 11 -27 5
0 7 4 4 9 -3 5 2 15 11 22 15 12 16 12 10 -4 -4 -10 -7 -26 -7 -34 0 -11 -6
-14 -21 -10 -24 6 -43 -8 -53 -40 -4 -11 -16 -23 -27 -26 -19 -5 -20 -4 -5 12
8 9 13 26 10 37 -4 17 -1 21 18 20 13 -1 23 5 24 14 3 36 5 40 20 40 13 0 14
-3 5 -13z m59 -27 c0 -5 -5 -10 -11 -10 -5 0 -7 5 -4 10 3 6 8 10 11 10 2 0 4
-4 4 -10z m-70 -54 c0 -3 -4 -8 -10 -11 -5 -3 -10 -1 -10 4 0 6 5 11 10 11 6
0 10 -2 10 -4z m-113 -53 c-9 -9 -20 -13 -24 -9 -4 4 1 14 11 22 25 18 35 8
13 -13z m81 0 c-6 -7 -19 -13 -30 -13 -16 0 -17 2 -6 14 17 19 52 17 36 -1z
m-17 -41 c-6 -10 -7 -28 -4 -40 3 -12 1 -22 -5 -22 -14 0 -21 57 -8 70 17 17
27 11 17 -8z m53 1 c4 -10 4 -14 0 -10 -4 4 -13 2 -21 -4 -16 -14 -17 3 -1 19
15 15 15 15 22 -5z m-113 -26 c-10 -9 -11 -8 -5 6 3 10 9 15 12 12 3 -3 0 -11
-7 -18z m-11 -31 c0 -2 -8 -10 -17 -17 -16 -13 -17 -12 -4 4 13 16 21 21 21
13z"/>
<path d="M1905 5740 c-3 -5 -1 -10 4 -10 6 0 11 5 11 10 0 6 -2 10 -4 10 -3 0
-8 -4 -11 -10z"/>
<path d="M1940 5704 c0 -8 5 -12 10 -9 6 4 8 11 5 16 -9 14 -15 11 -15 -7z"/>
<path d="M1831 5644 c0 -11 3 -14 6 -6 3 7 2 16 -1 19 -3 4 -6 -2 -5 -13z"/>
<path d="M1816 5472 c-3 -5 1 -9 9 -9 8 0 15 4 15 9 0 4 -4 8 -9 8 -6 0 -12
-4 -15 -8z"/>
<path d="M3185 5200 c3 -5 11 -10 16 -10 6 0 7 5 4 10 -3 6 -11 10 -16 10 -6
0 -7 -4 -4 -10z"/>
<path d="M3167 5159 c7 -7 15 -10 18 -7 3 3 -2 9 -12 12 -14 6 -15 5 -6 -5z"/>
<path d="M3790 5045 c-7 -9 -11 -18 -8 -20 3 -3 11 1 18 10 7 9 11 18 8 20 -3
3 -11 -1 -18 -10z"/>
<path d="M2787 4244 c-6 -6 -56 -11 -119 -13 -10 -1 -18 -6 -18 -12 0 -8 16
-9 53 -5 28 4 60 7 69 7 9 0 19 7 22 15 6 15 3 18 -7 8z"/>
<path d="M2910 4230 c0 -5 5 -10 10 -10 6 0 10 5 10 10 0 6 -4 10 -10 10 -5 0
-10 -4 -10 -10z"/>
<path d="M2833 4218 c-13 -6 -23 -16 -23 -22 0 -6 -4 -5 -9 3 -7 11 -16 11
-38 3 -17 -5 -43 -8 -59 -6 -25 4 -26 3 -9 -6 15 -7 8 -8 -27 -5 -28 3 -48 0
-48 -5 0 -6 5 -10 11 -10 5 0 7 -4 4 -10 -3 -5 1 -10 9 -10 9 0 16 5 16 10 0
6 12 9 28 8 15 -1 36 2 48 5 15 5 21 3 21 -8 0 -8 -9 -17 -19 -21 -30 -9 -20
-24 16 -24 19 0 42 -3 52 -7 12 -4 15 -3 10 5 -10 16 6 15 40 -3 16 -8 39 -15
52 -15 29 0 114 -25 170 -51 24 -11 48 -17 53 -14 5 4 9 -1 9 -9 0 -9 5 -16
10 -16 6 0 10 5 10 11 0 6 17 1 38 -11 20 -12 28 -15 18 -6 -24 20 -20 20 34
1 56 -20 58 -19 30 10 -24 25 -16 35 10 13 8 -7 6 -3 -4 9 -10 12 -15 26 -12
31 7 11 -42 66 -67 75 -9 4 -16 10 -15 14 1 4 -1 18 -6 31 -7 21 -13 22 -102
22 -61 0 -93 4 -89 10 8 13 3 13 -32 -1 -15 -6 -41 -12 -58 -13 -16 -2 -38 -6
-49 -11 -14 -6 -18 -5 -14 6 2 7 15 16 29 20 19 6 20 7 4 7 -11 1 -30 -4 -42
-10z m94 -104 c-3 -3 -12 -4 -19 -1 -8 3 -5 6 6 6 11 1 17 -2 13 -5z m110 -17
c6 2 14 -1 18 -6 7 -12 -9 -14 -54 -5 -17 4 -28 10 -25 15 2 4 15 5 27 0 12
-4 27 -6 34 -4z m209 -24 c-7 -7 -46 16 -46 28 0 5 11 2 25 -7 14 -9 24 -19
21 -21z m-45 -4 l24 -20 -30 17 c-39 24 -40 24 -28 24 6 0 21 -9 34 -21z
m-106 1 c3 -5 2 -10 -4 -10 -5 0 -13 5 -16 10 -3 6 -2 10 4 10 5 0 13 -4 16
-10z"/>
<path d="M2570 4180 c-13 -8 -12 -10 3 -10 9 0 17 5 17 10 0 12 -1 12 -20 0z"/>
<path d="M3210 4166 c0 -2 7 -7 16 -10 8 -3 12 -2 9 4 -6 10 -25 14 -25 6z"/>
<path d="M2573 4143 c9 -2 23 -2 30 0 6 3 -1 5 -18 5 -16 0 -22 -2 -12 -5z"/>
<path d="M3267 4137 c-4 -10 6 -28 23 -47 16 -17 28 -37 27 -43 -1 -7 5 -12
15 -12 9 0 27 -9 39 -20 l23 -20 -18 28 c-9 16 -25 36 -34 45 -9 10 -29 32
-43 51 -20 26 -27 30 -32 18z"/>
<path d="M2528 4133 c7 -3 16 -2 19 1 4 3 -2 6 -13 5 -11 0 -14 -3 -6 -6z"/>
<path d="M2660 4130 c-20 -6 -21 -8 -5 -8 11 0 29 3 40 8 25 11 -1 11 -35 0z"/>
<path d="M1814 4089 c-4 -7 -3 -9 4 -5 5 3 13 0 15 -6 4 -9 6 -10 6 -1 1 17
-16 25 -25 12z"/>
<path d="M3360 4076 c0 -2 7 -9 15 -16 13 -11 14 -10 9 4 -5 14 -24 23 -24 12z"/>
<path d="M4438 4024 c-19 -10 -34 -11 -52 -4 -15 5 -26 6 -26 1 0 -5 4 -11 10
-13 5 -1 -45 -3 -112 -4 -77 0 -123 -5 -125 -11 -2 -6 -12 -9 -21 -6 -10 2
-28 -5 -42 -17 -13 -11 -26 -17 -29 -13 -9 12 -61 15 -61 4 0 -6 -20 -22 -45
-37 -25 -14 -45 -31 -44 -38 3 -26 -2 -47 -10 -42 -5 3 -11 -1 -14 -9 -4 -9
-1 -12 9 -8 22 8 17 -7 -11 -29 -26 -20 -34 -48 -14 -48 7 0 5 -10 -5 -25 -28
-43 -16 -126 27 -179 21 -26 24 -27 39 -12 19 18 69 21 101 5 21 -10 21 -10 3
5 -19 15 -19 16 10 16 16 0 40 3 53 7 18 5 22 3 16 -7 -5 -8 -4 -11 2 -7 5 3
34 0 63 -8 60 -16 74 -11 115 37 19 22 26 40 23 60 -5 34 9 36 68 9 32 -15 41
-24 40 -42 -3 -44 -17 -77 -39 -88 -21 -11 -21 -11 5 -6 14 3 33 8 42 11 9 3
16 2 16 -4 0 -14 -55 -32 -99 -33 -32 0 -33 -1 -13 -9 12 -5 22 -12 22 -16 0
-3 -7 -4 -15 0 -8 3 -15 1 -15 -3 0 -5 7 -11 15 -15 8 -3 15 -1 15 5 0 7 13 9
37 4 31 -6 35 -4 25 7 -9 12 -1 20 48 43 32 16 57 32 54 37 -3 4 9 8 25 8 17
0 31 5 31 10 0 6 -7 10 -16 10 -8 0 -22 6 -29 14 -12 12 -12 15 -1 19 30 12 3
46 -60 77 -35 17 -64 36 -64 43 0 8 -3 8 -11 0 -11 -11 -52 -9 -89 4 -8 3 -58
7 -110 10 -150 8 -266 -32 -304 -105 -10 -20 -14 -21 -19 -9 -8 20 31 78 63
94 14 7 30 20 37 29 7 9 17 13 24 8 8 -4 10 -3 5 4 -4 7 -19 13 -34 13 -17 1
-21 3 -9 6 9 2 15 8 12 13 -6 10 112 31 173 30 64 -1 184 9 190 15 3 3 -15 6
-39 6 l-44 1 40 9 c22 4 51 8 65 8 20 1 22 -1 10 -9 -11 -7 -5 -10 25 -10 66
0 115 -12 115 -26 0 -8 5 -14 11 -14 5 0 7 5 4 10 -3 6 1 10 10 10 9 0 14 -4
11 -9 -3 -5 14 -12 38 -15 25 -4 50 -14 58 -23 11 -14 15 -9 29 38 14 47 15
58 3 81 -8 15 -14 33 -14 41 0 13 -23 28 -64 41 -14 5 -17 3 -11 -11 4 -13 0
-11 -16 6 -16 17 -19 25 -9 31 9 6 6 11 -11 21 -34 18 -60 19 -91 3z m87 -16
c7 -7 1 -8 -15 -3 -40 12 -59 26 -25 19 17 -4 35 -11 40 -16z m118 -189 c-8
-8 -19 -8 -40 -1 -28 10 -28 10 12 11 28 1 36 -2 28 -10z m-581 -176 c3 -16 9
-37 13 -47 7 -17 6 -18 -11 -11 -10 4 -34 10 -53 14 -31 5 -57 31 -32 31 5 0
22 11 36 26 29 29 41 26 47 -13z m92 28 c3 -5 -3 -11 -13 -14 -14 -3 -18 -1
-14 9 6 16 19 18 27 5z m-34 -48 c0 -8 5 -11 10 -8 6 4 8 12 4 18 -3 7 1 4 9
-5 8 -10 19 -18 24 -18 6 0 13 -9 16 -20 6 -24 -20 -28 -29 -5 -4 11 -10 12
-18 6 -16 -14 -32 -1 -38 31 -4 19 -1 25 9 21 7 -3 13 -12 13 -20z m148 0 c2
-15 -2 -23 -11 -23 -8 0 -17 -9 -20 -20 -3 -11 -12 -20 -21 -20 -10 0 -13 6
-10 15 4 8 1 15 -5 15 -6 0 -11 7 -11 16 0 12 6 15 25 10 14 -4 25 -2 25 4 0
5 -4 10 -10 10 -5 0 -10 5 -10 11 0 21 45 4 48 -18z"/>
<path d="M3340 4021 c0 -5 7 -15 17 -22 15 -13 15 -12 4 9 -12 23 -21 28 -21
13z"/>
<path d="M1810 3985 c-10 -12 -10 -15 4 -15 9 0 16 7 16 15 0 8 -2 15 -4 15
-2 0 -9 -7 -16 -15z"/>
<path d="M3310 3986 c0 -2 7 -7 16 -10 8 -3 12 -2 9 4 -6 10 -25 14 -25 6z"/>
<path d="M2805 3894 c11 -2 46 -6 78 -9 49 -6 56 -9 46 -21 -6 -8 -25 -14 -41
-14 -17 0 -27 -4 -23 -10 8 -14 -8 -13 -22 1 -9 9 -20 9 -44 0 -17 -6 -42 -11
-55 -11 -13 0 -31 -8 -41 -19 -22 -23 -70 -40 -58 -20 10 14 6 13 -82 -27 -35
-16 -63 -32 -63 -35 0 -4 19 -9 43 -12 23 -2 51 -8 62 -12 17 -6 17 -4 -3 12
-29 24 -20 33 56 57 28 10 52 22 52 27 0 13 28 11 32 -3 4 -10 13 -10 45 0 52
15 136 15 151 0 34 -34 -5 -121 -58 -133 -42 -9 -90 3 -91 23 0 11 -2 12 -6 4
-2 -6 -10 -10 -16 -6 -7 3 -1 -4 12 -15 28 -25 89 -28 130 -6 37 19 63 73 55
114 -4 17 -4 31 0 31 15 0 123 -59 135 -74 8 -9 20 -16 28 -16 10 0 13 -6 9
-16 -4 -11 0 -15 17 -14 12 1 29 2 37 1 13 -1 13 -2 0 -11 -8 -6 -35 -8 -60
-5 -50 6 -89 -8 -57 -21 34 -13 168 -7 183 8 7 8 -55 58 -71 58 -7 0 -18 7
-25 15 -7 8 -23 15 -37 15 -14 0 -21 4 -18 10 3 6 -1 10 -9 10 -10 0 -16 9
-16 21 0 18 -2 20 -16 8 -11 -9 -17 -10 -22 -2 -4 6 -20 15 -35 18 -15 4 -27
13 -27 20 0 15 -11 14 -53 -3 -35 -15 -47 -15 -47 -2 0 6 11 10 24 10 13 0 29
7 36 15 27 33 122 7 201 -56 48 -38 63 -33 18 5 -75 63 -189 98 -315 95 -32
-1 -50 -3 -39 -5z"/>
<path d="M2728 3883 c6 -2 18 -2 25 0 6 3 1 5 -13 5 -14 0 -19 -2 -12 -5z"/>
<path d="M2824 3786 c-19 -10 -20 -15 -10 -34 7 -13 15 -19 20 -15 4 4 11 1
17 -7 8 -13 10 -13 19 0 14 21 8 65 -10 67 -8 0 -25 -4 -36 -11z"/>
<path d="M2730 3765 c0 -8 4 -15 10 -15 5 0 7 7 4 15 -4 8 -8 15 -10 15 -2 0
-4 -7 -4 -15z"/>
<path d="M4616 3725 c-9 -26 -7 -32 5 -12 6 10 9 21 6 23 -2 3 -7 -2 -11 -11z"/>
<path d="M4470 3490 c0 -11 2 -20 4 -20 2 0 6 9 9 20 3 11 1 20 -4 20 -5 0 -9
-9 -9 -20z"/>
<path d="M4250 3481 c0 -5 7 -12 16 -15 24 -9 28 -7 14 9 -14 17 -30 20 -30 6z"/>
<path d="M4410 3476 c0 -2 8 -10 18 -17 15 -13 16 -12 3 4 -13 16 -21 21 -21
13z"/>
<path d="M3333 2873 c-18 -6 -16 -23 1 -23 8 0 16 -5 18 -11 2 -5 22 -13 45
-16 35 -4 43 -2 52 15 9 18 8 23 -8 32 -20 10 -86 13 -108 3z"/>
<path d="M3776 2807 c-62 -50 -112 -119 -100 -138 3 -5 -2 -6 -10 -3 -11 4
-16 0 -16 -10 0 -9 -7 -16 -15 -16 -19 0 -19 -4 0 -40 9 -17 11 -30 6 -30 -6
0 -17 14 -26 30 -20 38 -26 38 -15 0 5 -19 5 -28 -1 -25 -5 4 -9 13 -9 21 0 8
-4 14 -10 14 -5 0 -10 -10 -10 -22 -1 -23 -1 -23 -14 2 -8 13 -12 32 -11 42 4
18 -6 24 -19 11 -4 -4 -17 -8 -29 -8 -12 0 -22 -4 -22 -10 0 -18 -16 -36 -26
-30 -5 4 -14 -6 -19 -21 -6 -15 -13 -24 -17 -21 -3 3 2 25 11 48 13 32 14 44
5 53 -9 8 -10 8 -5 -1 8 -14 -3 -43 -16 -43 -7 0 -9 16 -5 40 3 22 1 40 -4 40
-5 0 -9 -9 -9 -19 0 -11 -7 -26 -15 -35 -17 -17 -20 -46 -5 -46 6 0 10 -17 10
-37 -1 -37 -1 -38 -14 -14 -15 27 -17 25 -31 -49 -4 -19 -12 -44 -18 -55 -9
-18 -11 -17 -22 15 l-12 35 -7 -40 c-15 -87 -15 -95 -6 -95 6 0 10 -8 10 -19
0 -12 9 -20 24 -23 22 -4 25 -1 28 26 2 23 9 32 26 34 12 2 22 8 22 14 0 5 6
8 14 5 10 -4 18 4 25 26 18 60 21 87 12 87 -6 0 -8 7 -5 15 4 8 10 15 14 15
13 0 18 -38 7 -49 -8 -8 -8 -11 1 -11 8 0 10 -13 6 -43 -5 -32 -2 -46 10 -56
14 -12 16 -8 16 43 0 31 4 56 9 56 5 0 7 23 4 50 -3 32 -1 50 6 50 6 0 11 -3
12 -7 0 -5 2 -34 4 -66 2 -38 10 -66 24 -83 12 -15 21 -37 21 -50 0 -13 4 -24
9 -24 5 0 11 -8 14 -17 2 -12 7 -7 15 17 10 32 11 33 17 13 4 -13 11 -23 15
-23 5 0 6 10 2 23 -5 19 -3 20 10 10 11 -10 17 -10 26 -1 18 18 16 -13 -3 -38
-22 -29 -19 -32 30 -21 26 6 45 16 45 24 0 7 4 13 9 13 18 0 20 -17 5 -38 -11
-17 -25 -22 -58 -22 -23 0 -66 -7 -96 -16 -59 -17 -117 -15 -223 10 -87 21
-205 17 -219 -8 -5 -9 -13 -14 -19 -11 -5 4 -9 2 -9 -4 0 -16 38 -33 45 -21 3
5 0 10 -7 10 -9 0 -9 3 2 10 19 12 33 13 26 2 -3 -5 8 -9 24 -9 24 0 27 3 19
14 -18 20 -1 15 21 -7 16 -16 25 -18 45 -10 34 13 34 13 28 -9 -4 -15 0 -18
23 -15 15 1 38 -4 50 -13 13 -8 24 -12 24 -8 0 4 6 3 13 -3 7 -6 42 -14 77
-17 36 -4 71 -8 78 -10 6 -3 12 2 12 10 0 8 5 15 10 15 6 0 10 -4 10 -10 0 -5
5 -10 10 -10 6 0 10 7 10 16 0 8 5 12 10 9 6 -3 10 -14 10 -25 0 -12 14 -23
40 -34 48 -19 66 -20 147 -3 58 13 62 12 67 -6 3 -12 10 -17 19 -14 8 3 19 1
25 -5 12 -12 32 -2 32 16 0 8 12 12 33 11 17 -1 35 3 40 9 5 7 11 5 18 -7 6
-9 14 -15 18 -13 10 7 7 -25 -4 -43 -5 -9 -4 -12 3 -7 6 3 16 1 24 -6 7 -7 24
-14 38 -16 23 -2 24 -2 6 11 -18 13 -34 73 -16 62 11 -7 40 23 40 41 0 8 4 13
10 9 6 -4 6 -15 0 -31 -8 -20 -7 -25 2 -21 16 5 15 42 -3 85 -11 27 -12 34 0
41 8 5 9 11 3 15 -6 3 -13 0 -15 -6 -4 -10 -8 -9 -16 2 -19 27 -14 42 10 30
11 -7 23 -9 26 -7 2 3 -5 10 -16 17 -12 6 -21 19 -21 30 0 10 -3 26 -6 34 -5
13 -9 14 -21 4 -12 -10 -18 -9 -28 5 -11 15 -14 15 -18 3 -3 -8 -2 -29 3 -45
5 -19 5 -31 -1 -31 -5 0 -10 10 -11 23 -1 12 -2 31 -3 42 -1 11 -7 19 -14 17
-8 -2 -11 3 -8 12 3 8 -1 20 -9 26 -11 10 -14 9 -14 -3 0 -9 -5 -19 -11 -23
-9 -5 -10 3 -5 29 4 21 2 38 -4 42 -5 3 -10 -1 -10 -9 0 -9 -4 -16 -9 -16 -12
0 -61 58 -61 72 0 5 -9 22 -19 36 -10 15 -20 32 -21 37 -3 17 -10 19 -11 4 -2
-22 -2 -22 5 -54 6 -28 5 -28 -15 8 -11 21 -27 41 -34 44 -8 3 -15 13 -15 22
0 9 -5 22 -12 29 -6 6 -9 14 -6 17 3 3 15 -10 26 -30 12 -19 26 -35 32 -35 21
0 7 22 -57 93 -15 15 -15 17 -1 17 11 0 14 6 11 19 -3 12 7 29 29 50 l33 31
-49 0 c-48 0 -49 0 -31 20 10 11 24 20 31 20 7 0 16 5 19 10 16 26 -28 5 -89
-43z m-116 -197 c0 -5 -2 -10 -4 -10 -3 0 -8 5 -11 10 -3 6 -1 10 4 10 6 0 11
-4 11 -10z m168 -64 c16 -18 16 -18 -5 -6 -21 14 -36 54 -24 66 3 3 8 -5 9
-18 2 -12 11 -32 20 -42z m-200 -9 c35 9 25 -5 -15 -22 l-36 -15 21 -21 c16
-14 22 -30 21 -57 -1 -23 -3 -29 -6 -14 -2 12 -11 22 -19 22 -8 0 -14 9 -14
21 0 11 -5 29 -10 40 -9 15 -7 19 6 19 13 0 15 6 10 28 -6 24 -5 25 7 10 9
-11 21 -15 35 -11z m102 -31 c0 -6 -6 -2 -12 8 -10 18 -12 18 -23 3 -11 -15
-14 -16 -25 -2 -7 9 -10 18 -6 22 3 3 6 1 6 -5 0 -7 5 -12 10 -12 6 0 10 7 10
17 0 14 2 14 20 -2 11 -10 20 -23 20 -29z m-340 -16 c0 -11 -4 -20 -9 -20 -5
0 -7 9 -4 20 3 11 7 20 9 20 2 0 4 -9 4 -20z m545 0 c3 -5 2 -10 -4 -10 -5 0
-13 5 -16 10 -3 6 -2 10 4 10 5 0 13 -4 16 -10z m-250 -17 c-3 -8 -5 -21 -5
-29 0 -9 -4 -13 -9 -10 -14 9 -10 53 6 53 8 0 12 -6 8 -14z m-321 -67 c-3 -14
-10 -26 -15 -26 -11 0 -11 3 1 36 13 33 23 26 14 -10z m632 -38 c35 -67 17
-95 -26 -40 -19 23 -20 27 -6 30 19 4 19 7 5 34 -8 15 -8 19 0 14 6 -4 18 -21
27 -38z m-276 3 c0 -6 -4 -13 -10 -16 -5 -3 -10 1 -10 9 0 9 5 16 10 16 6 0
10 -4 10 -9z m-410 -30 c0 -6 -4 -13 -10 -16 -5 -3 -10 1 -10 9 0 9 5 16 10
16 6 0 10 -4 10 -9z m520 -6 c0 -8 -4 -15 -10 -15 -5 0 -10 7 -10 15 0 8 5 15
10 15 6 0 10 -7 10 -15z m100 -12 c0 9 5 17 11 17 6 0 8 -6 5 -12 -3 -7 -9
-21 -12 -30 -4 -10 -11 -18 -16 -18 -6 0 -8 7 -4 15 3 8 1 15 -4 15 -6 0 -10
8 -10 17 0 15 2 14 15 -3 13 -17 14 -17 15 -1z m-135 -23 c-4 -7 3 -8 20 -4
21 5 27 4 23 -7 -5 -16 -48 -25 -48 -10 0 6 -8 8 -17 5 -15 -5 -15 -3 1 10 23
18 30 20 21 6z m95 -26 c0 -14 4 -22 10 -19 6 3 10 1 10 -4 0 -6 -8 -11 -18
-11 -14 0 -18 7 -18 34 1 39 16 38 16 0z m90 -4 c0 -10 -4 -22 -10 -25 -6 -4
-10 7 -10 25 0 18 4 29 10 25 6 -3 10 -15 10 -25z m97 -62 c6 1 19 -8 27 -20
20 -28 21 -44 1 -28 -8 7 -24 10 -36 7 -16 -4 -23 1 -30 23 -6 16 -17 31 -25
34 -8 3 -14 10 -14 16 0 6 15 1 32 -12 18 -12 38 -22 45 -20z m113 -6 c0 -13
-3 -12 -15 4 -19 25 -19 40 0 24 8 -7 15 -20 15 -28z m-45 -52 c3 -5 1 -10 -4
-10 -6 0 -11 5 -11 10 0 6 2 10 4 10 3 0 8 -4 11 -10z"/>
<path d="M3980 2341 c0 -10 19 -25 25 -20 1 2 -3 10 -11 17 -8 7 -14 8 -14 3z"/>
<path d="M3660 2730 c-9 -6 -10 -10 -3 -10 6 0 15 5 18 10 8 12 4 12 -15 0z"/>
<path d="M3335 2650 c3 -5 8 -10 11 -10 2 0 4 5 4 10 0 6 -5 10 -11 10 -5 0
-7 -4 -4 -10z"/>
<path d="M3323 2617 c4 -10 7 -28 8 -40 l0 -22 11 22 c8 17 7 26 -8 40 -17 17
-18 17 -11 0z"/>
<path d="M3307 2573 c-10 -9 -8 -86 2 -101 5 -9 9 9 10 47 1 61 0 67 -12 54z"/>
<path d="M3271 2560 c-1 -8 -4 -26 -7 -40 -5 -22 -4 -23 6 -7 6 10 9 28 7 40
-2 12 -5 15 -6 7z"/>
<path d="M3219 2523 c-6 -34 13 -48 25 -18 3 8 1 15 -4 15 -5 0 -10 8 -12 18
-3 10 -6 4 -9 -15z"/>
<path d="M3171 2476 c-14 -25 -7 -66 11 -66 7 0 1 -11 -12 -25 -27 -29 -19
-47 9 -21 11 10 26 16 33 13 10 -4 10 -6 1 -6 -7 -1 -13 -8 -13 -17 0 -11 6
-14 21 -9 14 5 25 2 31 -6 5 -9 6 -3 1 16 -4 17 -7 51 -6 77 0 27 -3 45 -8 42
-5 -3 -9 -11 -9 -19 0 -8 -5 -17 -10 -20 -7 -4 -9 3 -4 22 6 27 6 27 -10 8
-17 -20 -17 -19 -13 8 5 33 -5 35 -22 3z"/>
<path d="M2984 2426 c-10 -8 -16 -17 -13 -20 10 -10 39 5 39 20 0 17 -2 17
-26 0z"/>
<path d="M3036 2423 c-6 -14 -5 -15 5 -6 7 7 10 15 7 18 -3 3 -9 -2 -12 -12z"/>
<path d="M3130 2415 c0 -14 2 -25 4 -25 2 0 6 11 8 25 3 14 1 25 -3 25 -5 0
-9 -11 -9 -25z"/>
<path d="M4112 2428 c3 -11 42 -38 55 -38 10 0 -20 31 -39 41 -13 7 -18 7 -16
-3z"/>
<path d="M3490 2395 c0 -26 3 -33 15 -29 17 7 21 -11 4 -22 -8 -4 -7 -9 2 -15
8 -5 17 -3 21 4 13 20 9 57 -7 63 -8 4 -15 12 -15 20 0 8 -4 14 -10 14 -5 0
-10 -16 -10 -35z"/>
<path d="M2895 2370 c-8 -13 5 -13 25 0 13 8 13 10 -2 10 -9 0 -20 -4 -23 -10z"/>
<path d="M2915 2355 c-16 -13 -25 -24 -18 -25 6 0 15 5 18 10 9 15 27 12 20
-2 -4 -7 1 -4 10 7 9 11 20 20 25 20 4 0 12 3 16 8 20 19 -45 4 -71 -18z"/>
<path d="M2825 2340 c-3 -5 -1 -10 4 -10 6 0 11 5 11 10 0 6 -2 10 -4 10 -3 0
-8 -4 -11 -10z"/>
<path d="M3355 2320 c-3 -5 -1 -10 4 -10 6 0 11 5 11 10 0 6 -2 10 -4 10 -3 0
-8 -4 -11 -10z"/>
<path d="M2903 2286 c-31 -14 -45 -36 -23 -36 6 0 10 5 10 10 0 6 5 10 10 10
6 0 10 -7 10 -15 0 -17 21 -20 36 -6 5 5 42 11 81 13 50 1 69 6 62 13 -5 5
-20 11 -32 13 -95 11 -125 11 -154 -2z"/>
<path d="M3580 2284 c0 -8 5 -12 10 -9 6 4 8 11 5 16 -9 14 -15 11 -15 -7z"/>
<path d="M2760 2243 c0 -10 4 -14 8 -8 4 6 11 13 16 18 5 4 2 7 -7 7 -10 0
-17 -8 -17 -17z"/>
<path d="M1674 2136 c-36 -32 -53 -56 -63 -90 -27 -93 -60 -161 -82 -173 -29
-15 -36 -9 -15 12 19 19 21 55 4 55 -9 0 -8 4 2 10 8 5 12 10 8 10 -4 0 -3 12
2 28 8 21 0 16 -40 -28 -27 -30 -55 -66 -62 -79 -7 -14 -30 -43 -51 -66 l-38
-40 41 70 c23 39 50 79 60 90 72 83 8 42 -91 -58 -87 -88 -149 -186 -175 -277
-9 -30 -24 -73 -35 -96 -10 -22 -19 -48 -19 -58 0 -10 -7 -25 -17 -34 -15 -16
-16 -15 -11 10 3 15 2 25 -3 23 -25 -16 16 145 42 165 3 3 14 21 24 40 10 19
27 47 38 63 15 19 18 30 10 38 -7 7 -45 -7 -123 -46 -67 -33 -126 -55 -146
-55 -47 0 -71 -11 -233 -107 -185 -110 -347 -224 -446 -316 -95 -87 -210 -220
-196 -225 6 -2 11 -8 11 -14 0 -6 -7 -7 -16 -4 -11 4 -20 -6 -34 -37 -18 -39
-20 -70 -20 -494 l0 -453 3200 0 3200 0 0 399 0 398 -117 114 c-198 192 -331
291 -534 400 -73 39 -161 90 -195 114 -35 24 -92 53 -126 64 -43 15 -84 39
-128 77 -36 30 -83 68 -106 84 -43 30 -189 98 -288 132 -33 12 -95 45 -139 75
-105 72 -194 115 -302 148 -49 15 -94 31 -99 36 -6 5 -20 9 -33 9 -17 0 -23
-6 -23 -21 0 -12 -8 -23 -20 -26 -11 -3 -18 -9 -15 -13 3 -4 -2 -21 -11 -36
l-16 -29 6 28 c7 31 0 34 -27 10 -18 -17 -19 -17 -16 1 2 10 -2 21 -8 23 -9 3
-13 -5 -13 -24 0 -15 -4 -34 -9 -42 -7 -11 -10 -9 -16 8 -3 11 -11 21 -17 21
-6 0 -5 -7 3 -16 12 -15 11 -16 -10 -9 -18 5 -22 4 -16 -6 6 -9 4 -11 -8 -6
-11 4 -14 2 -10 -9 3 -7 12 -14 19 -14 12 0 12 -3 2 -14 -8 -9 -17 -11 -22 -5
-16 14 -30 10 -17 -5 8 -10 8 -16 -2 -25 -8 -6 -16 -9 -19 -6 -2 3 -5 -2 -5
-10 0 -8 7 -15 15 -15 13 0 13 -3 -1 -18 -10 -10 -17 -28 -17 -40 0 -13 -6
-22 -16 -22 -8 0 -12 -4 -9 -10 3 -5 1 -10 -6 -10 -6 0 -9 -8 -6 -20 4 -15 1
-20 -11 -18 -10 2 -16 -3 -14 -11 2 -9 -3 -11 -13 -7 -13 4 -15 1 -10 -14 5
-15 3 -18 -9 -14 -9 3 -16 1 -16 -5 0 -6 -5 -11 -10 -11 -6 0 -9 3 -8 8 2 4
-1 7 -7 7 -5 0 -9 -5 -7 -13 3 -10 -1 -11 -17 -2 -20 10 -21 8 -21 -29 0 -27
6 -43 18 -51 13 -8 11 -9 -12 -4 -25 6 -28 4 -23 -10 10 -24 -8 -19 -22 7 -11
21 -11 21 -7 -7 5 -36 -2 -58 -16 -49 -7 4 -9 -4 -6 -20 7 -34 -10 -24 -28 17
-7 17 -13 24 -14 15 0 -9 7 -32 15 -51 14 -35 14 -35 -11 -30 -14 2 -21 7 -16
11 5 3 -1 14 -14 24 -23 17 -24 17 -24 -3 0 -11 5 -20 10 -20 6 0 10 -10 10
-22 0 -19 -1 -20 -17 -5 -15 13 -21 13 -37 2 -10 -8 -15 -18 -11 -24 3 -6 2
-11 -4 -11 -5 0 -13 5 -16 10 -3 6 -11 10 -16 10 -6 0 -8 -4 -5 -8 11 -18 -38
-34 -68 -23 -34 14 -46 14 -23 0 24 -14 21 -31 -5 -27 -17 2 -23 9 -22 26 0
12 -3 22 -8 22 -4 0 -8 -11 -8 -25 0 -14 -4 -25 -10 -25 -5 0 -10 10 -10 23 0
22 -1 22 -13 -3 -13 -26 -45 -39 -56 -22 -3 5 -16 12 -27 16 -17 5 -23 2 -28
-16 -6 -21 -7 -22 -20 -5 -16 20 -37 22 -55 5 -10 -11 -11 -10 -6 5 6 13 0 18
-24 23 -22 5 -30 11 -27 20 7 19 5 18 -45 -11 -45 -25 -84 -31 -107 -17 -9 6
-7 13 10 27 13 11 17 13 11 5 -19 -21 -16 -30 10 -30 27 0 69 28 65 42 -2 6
-17 12 -33 14 -16 2 -31 8 -33 14 -3 8 -8 8 -18 0 -15 -14 -37 -3 -31 14 3 7
-4 13 -15 13 -14 1 -18 -3 -13 -16 5 -18 -21 -38 -33 -26 -3 3 0 5 6 5 7 0 12
9 12 20 0 15 -6 19 -27 17 -23 -2 -29 3 -35 28 -5 25 -6 22 -5 -15 2 -36 -1
-45 -16 -48 -14 -3 -18 2 -17 20 4 48 0 54 -20 28 -13 -15 -18 -18 -14 -7 5
13 2 16 -12 10 -11 -4 -15 -3 -11 4 4 6 0 13 -8 17 -8 3 -20 17 -27 31 -14 31
-22 31 -36 3 l-11 -23 0 22 c-1 17 -5 21 -18 16 -11 -4 -14 -3 -9 6 4 6 2 18
-4 26 -7 8 -9 15 -4 15 5 0 4 4 -2 8 -6 4 -15 15 -21 25 -8 16 -10 15 -11 -12
0 -18 4 -31 11 -31 8 0 7 -3 -2 -9 -7 -5 -11 -13 -8 -18 3 -5 1 -15 -4 -23 -9
-13 -10 -13 -8 0 1 8 1 28 0 43 -1 23 -4 27 -21 22 -15 -5 -18 -2 -15 14 2 12
0 21 -6 21 -5 0 -9 6 -9 14 0 9 -7 12 -19 9 -11 -3 -21 2 -25 12 -5 14 -1 16
27 10 l32 -7 -27 25 c-16 14 -28 36 -28 49 0 19 -6 23 -30 24 -24 1 -28 -2
-19 -12 6 -7 16 -11 23 -8 8 3 16 -5 20 -22 8 -32 2 -41 -17 -25 -8 6 -22 8
-31 5 -14 -6 -16 -2 -10 21 5 20 4 26 -5 21 -6 -4 -11 -14 -11 -22 0 -8 -5
-14 -10 -14 -6 0 -10 6 -9 13 1 6 1 21 0 32 -1 15 -4 16 -10 7 -12 -19 -33 10
-25 34 7 18 6 18 -12 2 -17 -17 -17 -19 4 -48 13 -16 21 -30 18 -30 -9 0 -57
28 -57 34 3 31 0 49 -7 38 -11 -17 -37 -6 -51 21 -11 22 -11 22 -5 -2 4 -17 2
-22 -7 -19 -8 3 -15 11 -15 19 -1 8 -2 20 -3 27 -1 10 -5 10 -17 -2 -20 -21
-23 -20 -17 3 3 10 -1 22 -8 26 -8 5 -10 4 -5 -3 10 -16 -25 -15 -46 2 -22 16
-23 24 -3 28 12 2 10 9 -9 31 -16 19 -29 25 -41 21 -15 -6 -13 -9 11 -20 16
-7 23 -13 16 -13 -8 -1 -10 -10 -6 -28 7 -27 6 -28 -13 -10 -11 9 -25 17 -32
17 -7 0 -10 4 -7 9 3 5 -7 11 -22 14 -15 3 -38 8 -52 12 -14 3 -7 -3 15 -14
22 -11 47 -25 55 -30 18 -12 55 -26 78 -30 4 -1 0 -6 -8 -11 -8 -5 -24 -7 -35
-4 -14 3 -10 -4 15 -26 20 -18 42 -29 53 -26 19 5 24 -10 5 -17 -8 -3 -1 -9
15 -16 15 -6 27 -13 27 -17 0 -3 -7 -4 -15 0 -9 3 -25 -4 -37 -16 l-21 -21 37
7 c29 6 36 4 36 -9 0 -8 5 -15 11 -15 5 0 7 -5 4 -11 -4 -6 -14 -8 -22 -5 -9
4 -13 1 -10 -6 2 -7 12 -12 21 -10 9 2 24 -2 34 -8 15 -10 15 -11 -3 -5 -19 6
-19 5 2 -16 12 -13 30 -23 40 -25 10 -1 27 -5 37 -9 16 -7 18 -5 13 8 -7 19 8
23 18 6 4 -6 -1 -16 -10 -23 -16 -12 -15 -13 12 -19 20 -4 32 -14 36 -27 3
-13 10 -19 17 -15 6 4 9 1 8 -7 -2 -7 3 -12 11 -10 7 2 20 -6 28 -18 8 -11 21
-20 29 -20 9 0 25 -10 36 -22 11 -13 17 -17 13 -10 -15 30 17 8 56 -38 23 -27
46 -47 50 -44 14 8 50 -6 44 -17 -4 -5 -1 -9 5 -9 6 0 9 -4 6 -9 -3 -4 7 -14
22 -20 l27 -13 -20 22 c-18 20 -16 19 33 -5 28 -14 57 -25 64 -24 21 4 56 -11
62 -26 3 -8 15 -15 26 -15 11 0 20 -4 20 -9 0 -4 19 -16 43 -25 49 -18 61 -20
53 -7 -4 5 -3 11 1 14 5 2 3 2 -4 1 -7 -2 -15 1 -18 6 -11 17 42 11 56 -7 9
-11 10 -14 2 -9 -8 4 -11 2 -8 -6 3 -8 15 -14 25 -15 11 -1 18 2 15 7 -10 16
20 17 55 2 19 -8 46 -16 60 -17 14 -2 41 -6 60 -10 33 -6 34 -5 16 9 -22 17
-18 20 49 31 22 4 48 14 57 22 9 8 23 13 30 11 7 -3 18 0 24 7 12 12 82 12
129 0 29 -7 29 -7 10 10 l-20 17 20 -7 c11 -4 31 -9 45 -11 25 -4 25 -4 2 6
-19 8 -21 12 -10 29 6 11 18 17 26 13 10 -3 13 -1 8 6 -4 7 -2 10 6 7 25 -10
11 -156 -18 -200 -8 -11 -14 -26 -14 -33 0 -29 -72 -131 -141 -200 -39 -40
-75 -72 -79 -72 -3 0 -17 -11 -30 -25 -13 -14 -43 -34 -67 -46 -24 -11 -41
-24 -38 -28 2 -4 -1 -8 -8 -9 -33 -3 -146 -41 -171 -57 -56 -37 -117 -52 -201
-49 -92 3 -145 12 -145 25 0 5 -7 6 -15 3 -8 -4 -17 1 -21 9 -3 9 -12 13 -21
10 -11 -4 -14 -2 -9 5 5 8 -4 12 -28 12 -20 0 -36 5 -36 10 0 6 -6 10 -14 10
-8 0 -27 11 -43 24 -15 13 -38 27 -51 31 -16 4 -21 12 -18 22 4 10 2 13 -8 10
-8 -3 -16 -1 -18 4 -2 6 -18 11 -36 11 -18 1 -35 5 -38 10 -3 5 -17 13 -31 19
-15 5 -21 13 -17 21 5 7 2 9 -8 5 -9 -3 -24 3 -34 14 -9 10 -26 19 -36 19 -10
0 -21 7 -24 15 -4 8 -12 15 -20 15 -8 0 -14 4 -14 9 0 5 -15 15 -32 22 -34 14
-39 17 -117 83 -242 203 -500 620 -529 858 -16 123 2 193 71 286 22 29 38 55
35 57 -2 2 -26 -15 -54 -39z m2561 -216 c8 -13 -5 -13 -25 0 -13 8 -13 10 2
10 9 0 20 -4 23 -10z m-2005 -136 c0 -8 -5 -12 -10 -9 -6 4 -8 11 -5 16 9 14
15 11 15 -7z m-885 -34 c3 -6 -4 -10 -17 -10 -18 0 -20 2 -8 10 19 12 18 12
25 0z m-170 -32 c-24 -29 -83 -94 -193 -210 -36 -40 -52 -47 -52 -24 0 12 27
40 204 210 65 63 81 72 41 24z m1268 -38 c-8 -30 -20 -33 -20 -5 0 14 5 25 12
25 8 0 11 -8 8 -20z m34 -32 c-3 -7 -5 -2 -5 12 0 14 2 19 5 13 2 -7 2 -19 0
-25z m96 -18 c-3 -11 -9 -20 -14 -20 -11 0 -11 3 -3 24 9 23 23 20 17 -4z
m-1679 -22 c-112 -96 -233 -227 -265 -288 -19 -35 -33 -70 -31 -77 2 -7 -2
-19 -8 -25 -6 -7 -21 -29 -33 -48 -13 -21 -33 -36 -47 -38 -21 -3 -22 -2 -11
12 14 17 12 19 -13 10 -9 -3 -13 -10 -10 -15 3 -5 -4 -9 -14 -9 -11 0 -30 -15
-42 -33 -22 -32 -45 -47 -97 -62 -13 -3 -23 -11 -23 -16 0 -5 -9 -9 -20 -9
-17 0 -18 3 -9 28 6 15 22 38 37 52 15 14 43 47 62 74 57 80 180 197 265 255
44 29 85 59 90 65 21 25 187 156 197 156 5 0 -7 -15 -28 -32z m1541 -8 c3 -5
1 -10 -4 -10 -6 0 -11 5 -11 10 0 6 2 10 4 10 3 0 8 -4 11 -10z m170 0 c3 -5
1 -10 -4 -10 -6 0 -11 5 -11 10 0 6 2 10 4 10 3 0 8 -4 11 -10z m-1817 -140
c-7 -11 -16 -20 -21 -20 -4 0 -3 9 3 20 6 11 15 20 20 20 6 0 5 -9 -2 -20z
m122 -24 c0 -3 -4 -8 -10 -11 -5 -3 -10 -1 -10 4 0 6 5 11 10 11 6 0 10 -2 10
-4z m1967 -58 c-3 -8 -6 -5 -6 6 -1 11 2 17 5 13 3 -3 4 -12 1 -19z m146 -23
c-10 -13 -22 -25 -27 -25 -5 0 1 11 14 25 30 32 36 32 13 0z m-288 -15 c3 -5
1 -10 -4 -10 -6 0 -11 5 -11 10 0 6 2 10 4 10 3 0 8 -4 11 -10z m340 -160 c3
-6 -1 -7 -9 -4 -18 7 -21 14 -7 14 6 0 13 -4 16 -10z m280 -20 c-3 -5 -12 -10
-18 -10 -7 0 -6 4 3 10 19 12 23 12 15 0z m-3045 -164 c0 -2 -7 -6 -15 -10 -8
-3 -15 -1 -15 4 0 6 7 10 15 10 8 0 15 -2 15 -4z m2975 -376 c-3 -5 -12 -10
-18 -10 -7 0 -6 4 3 10 19 12 23 12 15 0z m-55 -14 c0 -8 -107 -66 -121 -66
-8 0 4 9 26 20 22 12 51 27 65 35 27 16 30 17 30 11z m-480 -26 c18 -12 2 -12
-25 0 -13 6 -15 9 -5 9 8 0 22 -4 30 -9z m-2370 -49 c-13 -8 -81 -29 -150 -46
-25 -6 -25 -6 2 10 15 8 53 22 85 29 69 17 83 18 63 7z m2515 -1 c13 -6 15 -9
5 -9 -8 0 -22 4 -30 9 -18 12 -2 12 25 0z m172 -6 c-3 -3 -12 -4 -19 -1 -8 3
-5 6 6 6 11 1 17 -2 13 -5z m-54 -11 c-7 -2 -21 -2 -30 0 -10 3 -4 5 12 5 17
0 24 -2 18 -5z"/>
<path d="M4187 2095 c-4 -8 -2 -17 3 -20 6 -4 10 3 10 14 0 25 -6 27 -13 6z"/>
<path d="M3920 2090 c0 -6 7 -10 15 -10 8 0 15 2 15 4 0 2 -7 6 -15 10 -8 3
-15 1 -15 -4z"/>
<path d="M3606 2031 c-3 -5 3 -11 15 -14 16 -4 18 -3 8 9 -13 16 -16 17 -23 5z"/>
<path d="M4222 2004 c10 -10 20 -16 22 -13 3 3 -5 11 -17 18 -21 13 -21 12 -5
-5z"/>
<path d="M3520 1998 c0 -10 14 -31 31 -48 18 -16 28 -30 23 -30 -5 0 -28 19
-52 41 -48 47 -56 32 -14 -27 44 -61 45 -65 25 -57 -16 6 -17 5 -3 -13 14 -18
14 -18 -2 -5 -10 7 -16 17 -13 21 3 4 -2 10 -10 14 -8 3 -15 1 -15 -5 0 -6 -7
-8 -16 -5 -29 11 -10 -27 21 -44 17 -8 33 -19 38 -25 4 -6 11 -4 17 5 10 15
14 8 11 -22 -1 -10 3 -18 8 -18 6 0 11 7 11 15 0 8 4 15 9 15 5 0 14 -7 21
-15 19 -22 30 -18 30 11 0 16 10 34 26 46 18 15 22 24 15 31 -16 16 -13 37 4
37 8 0 15 -5 15 -12 0 -6 3 -8 7 -4 5 4 0 14 -11 21 -21 16 -15 45 8 45 8 0
22 -10 30 -22 9 -12 18 -19 21 -16 7 7 -61 78 -76 78 -9 0 -8 -4 1 -15 10 -12
10 -15 -4 -15 -9 0 -16 4 -16 9 0 5 -13 11 -30 13 l-30 4 25 -32 c28 -37 33
-53 10 -34 -9 7 -18 10 -22 6 -3 -3 -1 -6 5 -6 11 0 45 -60 38 -67 -8 -9 -58
67 -53 81 3 8 -6 24 -20 37 -13 13 -24 20 -23 14 7 -32 -2 -38 -20 -15 -16 20
-20 22 -20 8z"/>
<path d="M3370 1970 c0 -5 5 -10 10 -10 6 0 10 5 10 10 0 6 -4 10 -10 10 -5 0
-10 -4 -10 -10z"/>
<path d="M2130 1966 c0 -2 7 -6 15 -10 8 -3 15 -1 15 4 0 6 -7 10 -15 10 -8 0
-15 -2 -15 -4z"/>
<path d="M2275 1870 c3 -5 11 -10 16 -10 6 0 7 5 4 10 -3 6 -11 10 -16 10 -6
0 -7 -4 -4 -10z"/>
<path d="M3333 1862 c-9 -22 3 -23 28 -3 l24 20 -24 -2 c-13 -1 -26 -7 -28
-15z"/>
<path d="M3401 1864 c0 -11 3 -14 6 -6 3 7 2 16 -1 19 -3 4 -6 -2 -5 -13z"/>
<path d="M3432 1860 c0 -14 2 -19 5 -12 2 6 2 18 0 25 -3 6 -5 1 -5 -13z"/>
<path d="M2145 1820 c3 -5 8 -10 11 -10 2 0 4 5 4 10 0 6 -5 10 -11 10 -5 0
-7 -4 -4 -10z"/>
<path d="M2405 1790 c-3 -5 -1 -10 4 -10 6 0 11 5 11 10 0 6 -2 10 -4 10 -3 0
-8 -4 -11 -10z"/>
<path d="M2225 1721 c-3 -5 -1 -12 5 -16 5 -3 10 1 10 9 0 18 -6 21 -15 7z"/>
<path d="M2620 1707 c0 -16 20 -37 35 -37 5 0 2 7 -9 15 -10 7 -15 18 -11 24
3 6 1 11 -4 11 -6 0 -11 -6 -11 -13z"/>
<path d="M2785 1549 c-4 -6 -5 -12 -2 -15 2 -3 7 2 10 11 7 17 1 20 -8 4z"/>
<path d="M3800 1501 c0 -6 4 -13 10 -16 6 -3 7 1 4 9 -7 18 -14 21 -14 7z"/>
<path d="M3411 1338 c-1 -25 17 -31 37 -12 16 17 16 17 -5 12 -12 -3 -24 -1
-27 6 -2 6 -5 3 -5 -6z"/>
</g>
</svg>
